# xmcd
#
# Track frame offsets:
#	150
#	6725
#	16140
#	29975
#	43217
#	52476
#	60698
#	74167
#	86627
#	100159
#	117450
#	127980
#	136202
#	149444
#	162253
#	177195
#	193072
#	204927
#	214262
#	228754
#	241898
#	257232
#	271841
#	288780
#	300562
#	315130
#	324661
#	337050
#
# Disc length: 4659 seconds
#
# Revision: 0
# Processed by: cddbd v1.5.2PL0 Copyright (c) Steve Scherf et al.
# Submitted via: dBpowerAMP V4.0
#
DISCID=ad12311c
DTITLE=Avioes do Forro - Ao Vivo Quixeramobim
DYEAR=2006
DGENRE=Forro
TTITLE0=Gostosao
TTITLE1=Se Voce Voltar pra Mim
TTITLE2=Agarra e Beija
TTITLE3=Deixe Ela Dancar
TTITLE4=Por Favor Nao Me Procure
TTITLE5=Nossa Maneira de Namorar
TTITLE6=Eu Nao Quero Me Amarrar
TTITLE7=Piripiri Piripiri!
TTITLE8=Aumenta o Som do Carro
TTITLE9=Sou Bonito
TTITLE10=Menina Caia Fora
TTITLE11=Todo Mundo Tem um Jeito do Amor
TTITLE12=Meu Coracao Chama Por Voce
TTITLE13=Ela é Linda
TTITLE14=Não tem mais tempo pra gente
TTITLE15=Doi doi doi
TTITLE16=Voce nao me merecia
TTITLE17=So fiz chorar
TTITLE18=Barriguinha
TTITLE19=Fazer Valer
TTITLE20=Pode chorar
TTITLE21=Hoje eu lembrei
TTITLE22=Nao quero mais voce
TTITLE23=Voce sempre passa
TTITLE24=Gostosao
TTITLE25=Track 26 Bonus
TTITLE26=Track 27 Bonus
TTITLE27=Track 28 Bonus
EXTD=
EXTT0=
EXTT1=
EXTT2=
EXTT3=
EXTT4=
EXTT5=
EXTT6=
EXTT7=
EXTT8=
EXTT9=
EXTT10=
EXTT11=
EXTT12=
EXTT13=
EXTT14=
EXTT15=
EXTT16=
EXTT17=
EXTT18=
EXTT19=
EXTT20=
EXTT21=
EXTT22=
EXTT23=
EXTT24=
EXTT25=
EXTT26=
EXTT27=
PLAYORDER=
